<svg width="21" height="21" viewBox="0 0 21 21" fill="none" xmlns="http://www.w3.org/2000/svg">
<path fill-rule="evenodd" clip-rule="evenodd" d="M10.4987 0.0859375C11.8666 0.0859311 13.2212 0.355361 14.485 0.878844C15.7488 1.40233 16.8971 2.16961 17.8644 3.13689C18.8317 4.10416 19.599 5.25249 20.1225 6.5163C20.6459 7.78011 20.9154 9.13465 20.9154 10.5026C20.9154 16.2556 16.2517 20.9193 10.4987 20.9193C4.74575 20.9193 0.0820312 16.2556 0.0820312 10.5026C0.0820312 4.74966 4.74575 0.0859375 10.4987 0.0859375ZM11.5404 11.5443H9.45703C6.87817 11.5443 4.66416 13.1062 3.70923 15.3357C5.22017 17.4544 7.6981 18.8359 10.4987 18.8359C13.2993 18.8359 15.7772 17.4544 17.2882 15.3355C16.3333 13.1062 14.1192 11.5443 11.5404 11.5443ZM10.4987 3.21094C8.7728 3.21094 7.37368 4.61006 7.37368 6.33594C7.37368 8.06182 8.7728 9.46094 10.4987 9.46094C12.2246 9.46094 13.6237 8.06182 13.6237 6.33594C13.6237 4.61006 12.2246 3.21094 10.4987 3.21094Z" fill="black" fill-opacity="0.9"/>
</svg>
