<svg width="24" height="24" viewBox="0 0 24 24" fill="none" xmlns="http://www.w3.org/2000/svg">
<rect width="24" height="24" rx="5" fill="#01A048"/>
<path fill-rule="evenodd" clip-rule="evenodd" d="M18.2004 5.79301C17.3914 4.98366 16.4304 4.34231 15.3726 3.90588C14.3147 3.46945 13.181 3.24656 12.0367 3.25004C7.23438 3.25004 3.325 7.13988 3.32305 11.9219C3.3209 13.4446 3.72229 14.9407 4.48633 16.2579L3.25 20.75L7.86914 19.5442C9.14772 20.2369 10.579 20.5994 12.0332 20.5989H12.0367C16.8387 20.5989 20.7477 16.7086 20.75 11.927C20.7529 10.7866 20.529 9.65699 20.0913 8.60392C19.6536 7.55086 19.0108 6.59535 18.2004 5.79301ZM12.0367 19.1352H12.0336C10.7373 19.1356 9.46449 18.7887 8.34766 18.1305L8.0832 17.9743L5.34219 18.6899L6.07383 16.0301L5.90156 15.7567C5.17671 14.6091 4.79267 13.2793 4.79414 11.9219C4.79414 7.94809 8.04453 4.71488 12.0395 4.71488C13.9559 4.71146 15.7951 5.46939 17.1528 6.82196C18.5104 8.17454 19.2752 10.011 19.2789 11.9274C19.2773 15.9016 16.0285 19.1352 12.0367 19.1352ZM16.009 13.7372C15.7914 13.6286 14.7199 13.1043 14.5215 13.0321C14.323 12.9598 14.1766 12.9235 14.0316 13.1407C13.8867 13.3579 13.4691 13.8438 13.3422 13.9903C13.2152 14.1368 13.0883 14.1528 12.8707 14.0442C12.6531 13.9356 11.9512 13.7071 11.1195 12.9688C10.4723 12.3942 10.0355 11.6848 9.90859 11.468C9.78164 11.2512 9.89492 11.1336 10.0039 11.0258C10.102 10.9286 10.2215 10.7727 10.3305 10.6461C10.4395 10.5196 10.4758 10.4289 10.548 10.2844C10.6203 10.1399 10.5844 10.0133 10.5301 9.90512C10.4758 9.79691 10.0402 8.73012 9.85898 8.29613C9.68203 7.87348 9.50273 7.9309 9.36914 7.92426C9.24219 7.91801 9.0957 7.91645 8.95156 7.91645C8.84137 7.91931 8.73295 7.94487 8.63308 7.99151C8.53321 8.03816 8.44402 8.10489 8.37109 8.18754C8.17148 8.40473 7.60898 8.92973 7.60898 9.99535C7.60898 11.061 8.39023 12.0922 8.49805 12.2368C8.60586 12.3813 10.0332 14.57 12.2172 15.5086C12.6227 15.6823 13.0371 15.8346 13.4586 15.9649C13.9801 16.1297 14.4547 16.1067 14.8297 16.0508C15.248 15.9887 16.1188 15.5266 16.2996 15.0204C16.4805 14.5141 16.4809 14.0805 16.4266 13.9903C16.3723 13.9 16.227 13.8454 16.009 13.7372Z" fill="white"/>
</svg>
